solid MATLAB_1
facet normal 0.0997285023 0.401344508 0.910481632
  outer loop
   vertex 0 0.525731087 0.850650787
   vertex 0 0.273266524 0.961938381
   vertex 0.259891927 0.433888555 0.862668455
  endloop
 endfacet
facet normal 0.0986688659 0.137279078 0.985605836
  outer loop
   vertex 0 0 1
   vertex 0.262865543 0.16245985 0.95105654
   vertex 0 0.273266524 0.961938381
  endloop
 endfacet
facet normal 0.351251453 0.293383718 0.88912791
  outer loop
   vertex 0.5 0.309017003 0.809017003
   vertex 0.259891927 0.433888555 0.862668455
   vertex 0.262865543 0.16245985 0.95105654
  endloop
 endfacet
facet normal 0.168145269 0.306892902 0.936773121
  outer loop
   vertex 0 0.273266524 0.961938381
   vertex 0.262865543 0.16245985 0.95105654
   vertex 0.259891927 0.433888555 0.862668455
  endloop
 endfacet
facet normal 0.0997285023 -0.401344508 0.910481632
  outer loop
   vertex 0 -0.525731087 0.850650787
   vertex 0.259891927 -0.433888555 0.862668455
   vertex 0 -0.273266524 0.961938381
  endloop
 endfacet
facet normal 0.351251453 -0.293383718 0.88912791
  outer loop
   vertex 0.5 -0.309017003 0.809017003
   vertex 0.262865543 -0.16245985 0.95105654
   vertex 0.259891927 -0.433888555 0.862668455
  endloop
 endfacet
facet normal 0.0986688659 -0.137279078 0.985605836
  outer loop
   vertex 0 0 1
   vertex 0 -0.273266524 0.961938381
   vertex 0.262865543 -0.16245985 0.95105654
  endloop
 endfacet
facet normal 0.168145269 -0.306892902 0.936773121
  outer loop
   vertex 0.259891927 -0.433888555 0.862668455
   vertex 0.262865543 -0.16245985 0.95105654
   vertex 0 -0.273266524 0.961938381
  endloop
 endfacet
facet normal 0.749117553 0 0.662437081
  outer loop
   vertex 0.850650787 0 0.525731087
   vertex 0.702046454 0.16062203 0.693780482
   vertex 0.702046454 -0.16062203 0.693780482
  endloop
 endfacet
facet normal 0.573373675 0.156104639 0.804284751
  outer loop
   vertex 0.5 0.309017003 0.809017003
   vertex 0.525731087 0 0.850650787
   vertex 0.702046454 0.16062203 0.693780482
  endloop
 endfacet
facet normal 0.573373675 -0.156104639 0.804284751
  outer loop
   vertex 0.5 -0.309017003 0.809017003
   vertex 0.702046454 -0.16062203 0.693780482
   vertex 0.525731087 0 0.850650787
  endloop
 endfacet
facet normal 0.664708376 0 0.747102916
  outer loop
   vertex 0.702046454 0.16062203 0.693780482
   vertex 0.525731087 0 0.850650787
   vertex 0.702046454 -0.16062203 0.693780482
  endloop
 endfacet
facet normal 0.183046237 0 0.983104289
  outer loop
   vertex 0 0 1
   vertex 0.262865543 -0.16245985 0.95105654
   vertex 0.262865543 0.16245985 0.95105654
  endloop
 endfacet
facet normal 0.434987754 -0.155708432 0.886871219
  outer loop
   vertex 0.5 -0.309017003 0.809017003
   vertex 0.525731087 0 0.850650787
   vertex 0.262865543 -0.16245985 0.95105654
  endloop
 endfacet
facet normal 0.434987754 0.155708432 0.886871219
  outer loop
   vertex 0.5 0.309017003 0.809017003
   vertex 0.262865543 0.16245985 0.95105654
   vertex 0.525731087 0 0.850650787
  endloop
 endfacet
facet normal 0.356822103 -0 0.934172332
  outer loop
   vertex 0.262865543 -0.16245985 0.95105654
   vertex 0.525731087 0 0.850650787
   vertex 0.262865543 0.16245985 0.95105654
  endloop
 endfacet
facet normal 0 0.662437081 0.749117553
  outer loop
   vertex 0 0.525731087 0.850650787
   vertex 0.16062203 0.693780482 0.702046454
   vertex -0.16062203 0.693780482 0.702046454
  endloop
 endfacet
facet normal 0.156104639 0.804284751 0.573373675
  outer loop
   vertex 0.309017003 0.809017003 0.5
   vertex 0 0.850650787 0.525731087
   vertex 0.16062203 0.693780482 0.702046454
  endloop
 endfacet
facet normal -0.156104639 0.804284751 0.573373675
  outer loop
   vertex -0.309017003 0.809017003 0.5
   vertex -0.16062203 0.693780482 0.702046454
   vertex 0 0.850650787 0.525731087
  endloop
 endfacet
facet normal 0 0.747102916 0.664708376
  outer loop
   vertex 0.16062203 0.693780482 0.702046454
   vertex 0 0.850650787 0.525731087
   vertex -0.16062203 0.693780482 0.702046454
  endloop
 endfacet
facet normal 0.401344508 0.910481632 0.0997285023
  outer loop
   vertex 0.525731087 0.850650787 0
   vertex 0.273266524 0.961938381 0
   vertex 0.433888555 0.862668455 0.259891927
  endloop
 endfacet
facet normal 0.137279078 0.985605836 0.0986688659
  outer loop
   vertex 0 1 0
   vertex 0.16245985 0.95105654 0.262865543
   vertex 0.273266524 0.961938381 0
  endloop
 endfacet
facet normal 0.293383718 0.88912791 0.351251453
  outer loop
   vertex 0.309017003 0.809017003 0.5
   vertex 0.433888555 0.862668455 0.259891927
   vertex 0.16245985 0.95105654 0.262865543
  endloop
 endfacet
facet normal 0.306892902 0.936773121 0.168145269
  outer loop
   vertex 0.273266524 0.961938381 0
   vertex 0.16245985 0.95105654 0.262865543
   vertex 0.433888555 0.862668455 0.259891927
  endloop
 endfacet
facet normal -0.401344508 0.910481632 0.0997285023
  outer loop
   vertex -0.525731087 0.850650787 0
   vertex -0.433888555 0.862668455 0.259891927
   vertex -0.273266524 0.961938381 0
  endloop
 endfacet
facet normal -0.293383718 0.88912791 0.351251453
  outer loop
   vertex -0.309017003 0.809017003 0.5
   vertex -0.16245985 0.95105654 0.262865543
   vertex -0.433888555 0.862668455 0.259891927
  endloop
 endfacet
facet normal -0.137279078 0.985605836 0.0986688659
  outer loop
   vertex 0 1 0
   vertex -0.273266524 0.961938381 0
   vertex -0.16245985 0.95105654 0.262865543
  endloop
 endfacet
facet normal -0.306892902 0.936773121 0.168145269
  outer loop
   vertex -0.433888555 0.862668455 0.259891927
   vertex -0.16245985 0.95105654 0.262865543
   vertex -0.273266524 0.961938381 0
  endloop
 endfacet
facet normal 0.155708432 0.886871219 0.434987754
  outer loop
   vertex 0.309017003 0.809017003 0.5
   vertex 0.16245985 0.95105654 0.262865543
   vertex 0 0.850650787 0.525731087
  endloop
 endfacet
facet normal 0 0.983104289 0.183046237
  outer loop
   vertex 0 1 0
   vertex -0.16245985 0.95105654 0.262865543
   vertex 0.16245985 0.95105654 0.262865543
  endloop
 endfacet
facet normal -0.155708432 0.886871219 0.434987754
  outer loop
   vertex -0.309017003 0.809017003 0.5
   vertex 0 0.850650787 0.525731087
   vertex -0.16245985 0.95105654 0.262865543
  endloop
 endfacet
facet normal 0 0.934172332 0.356822103
  outer loop
   vertex 0.16245985 0.95105654 0.262865543
   vertex -0.16245985 0.95105654 0.262865543
   vertex 0 0.850650787 0.525731087
  endloop
 endfacet
facet normal -0.161364108 0.562708616 0.810753167
  outer loop
   vertex 0 0.525731087 0.850650787
   vertex -0.16062203 0.693780482 0.702046454
   vertex -0.259891927 0.433888555 0.862668455
  endloop
 endfacet
facet normal -0.315754205 0.705615878 0.634354413
  outer loop
   vertex -0.309017003 0.809017003 0.5
   vertex -0.425325394 0.587785244 0.688190937
   vertex -0.16062203 0.693780482 0.702046454
  endloop
 endfacet
facet normal -0.41223219 0.453033298 0.790459037
  outer loop
   vertex -0.5 0.309017003 0.809017003
   vertex -0.259891927 0.433888555 0.862668455
   vertex -0.425325394 0.587785244 0.688190937
  endloop
 endfacet
facet normal -0.272064745 0.578957617 0.768627882
  outer loop
   vertex -0.16062203 0.693780482 0.702046454
   vertex -0.425325394 0.587785244 0.688190937
   vertex -0.259891927 0.433888555 0.862668455
  endloop
 endfacet
facet normal -0.562708616 0.810753167 0.161364108
  outer loop
   vertex -0.525731087 0.850650787 0
   vertex -0.693780482 0.702046454 0.16062203
   vertex -0.433888555 0.862668455 0.259891927
  endloop
 endfacet
facet normal -0.705615878 0.634354413 0.315754205
  outer loop
   vertex -0.809017003 0.5 0.309017003
   vertex -0.587785244 0.688190937 0.425325394
   vertex -0.693780482 0.702046454 0.16062203
  endloop
 endfacet
facet normal -0.453033298 0.790459037 0.41223219
  outer loop
   vertex -0.309017003 0.809017003 0.5
   vertex -0.433888555 0.862668455 0.259891927
   vertex -0.587785244 0.688190937 0.425325394
  endloop
 endfacet
facet normal -0.578957617 0.768627882 0.272064745
  outer loop
   vertex -0.693780482 0.702046454 0.16062203
   vertex -0.587785244 0.688190937 0.425325394
   vertex -0.433888555 0.862668455 0.259891927
  endloop
 endfacet
facet normal -0.810753167 0.161364108 0.562708616
  outer loop
   vertex -0.850650787 0 0.525731087
   vertex -0.702046454 0.16062203 0.693780482
   vertex -0.862668455 0.259891927 0.433888555
  endloop
 endfacet
facet normal -0.634354413 0.315754205 0.705615878
  outer loop
   vertex -0.5 0.309017003 0.809017003
   vertex -0.688190937 0.425325394 0.587785244
   vertex -0.702046454 0.16062203 0.693780482
  endloop
 endfacet
facet normal -0.790459037 0.41223219 0.453033298
  outer loop
   vertex -0.809017003 0.5 0.309017003
   vertex -0.862668455 0.259891927 0.433888555
   vertex -0.688190937 0.425325394 0.587785244
  endloop
 endfacet
facet normal -0.768627882 0.272064745 0.578957617
  outer loop
   vertex -0.702046454 0.16062203 0.693780482
   vertex -0.688190937 0.425325394 0.587785244
   vertex -0.862668455 0.259891927 0.433888555
  endloop
 endfacet
facet normal -0.451883465 0.703824997 0.548116565
  outer loop
   vertex -0.309017003 0.809017003 0.5
   vertex -0.587785244 0.688190937 0.425325394
   vertex -0.425325394 0.587785244 0.688190937
  endloop
 endfacet
facet normal -0.703824997 0.548116565 0.451883465
  outer loop
   vertex -0.809017003 0.5 0.309017003
   vertex -0.688190937 0.425325394 0.587785244
   vertex -0.587785244 0.688190937 0.425325394
  endloop
 endfacet
facet normal -0.548116565 0.451883465 0.703824997
  outer loop
   vertex -0.5 0.309017003 0.809017003
   vertex -0.425325394 0.587785244 0.688190937
   vertex -0.688190937 0.425325394 0.587785244
  endloop
 endfacet
facet normal -0.577350259 0.577350259 0.577350259
  outer loop
   vertex -0.587785244 0.688190937 0.425325394
   vertex -0.688190937 0.425325394 0.587785244
   vertex -0.425325394 0.587785244 0.688190937
  endloop
 endfacet
facet normal 0.161364108 0.562708616 0.810753167
  outer loop
   vertex 0 0.525731087 0.850650787
   vertex 0.259891927 0.433888555 0.862668455
   vertex 0.16062203 0.693780482 0.702046454
  endloop
 endfacet
facet normal 0.41223219 0.453033298 0.790459037
  outer loop
   vertex 0.5 0.309017003 0.809017003
   vertex 0.425325394 0.587785244 0.688190937
   vertex 0.259891927 0.433888555 0.862668455
  endloop
 endfacet
facet normal 0.315754205 0.705615878 0.634354413
  outer loop
   vertex 0.309017003 0.809017003 0.5
   vertex 0.16062203 0.693780482 0.702046454
   vertex 0.425325394 0.587785244 0.688190937
  endloop
 endfacet
facet normal 0.272064745 0.578957617 0.768627882
  outer loop
   vertex 0.259891927 0.433888555 0.862668455
   vertex 0.425325394 0.587785244 0.688190937
   vertex 0.16062203 0.693780482 0.702046454
  endloop
 endfacet
facet normal 0.810753167 0.161364108 0.562708616
  outer loop
   vertex 0.850650787 0 0.525731087
   vertex 0.862668455 0.259891927 0.433888555
   vertex 0.702046454 0.16062203 0.693780482
  endloop
 endfacet
facet normal 0.790459037 0.41223219 0.453033298
  outer loop
   vertex 0.809017003 0.5 0.309017003
   vertex 0.688190937 0.425325394 0.587785244
   vertex 0.862668455 0.259891927 0.433888555
  endloop
 endfacet
facet normal 0.634354413 0.315754205 0.705615878
  outer loop
   vertex 0.5 0.309017003 0.809017003
   vertex 0.702046454 0.16062203 0.693780482
   vertex 0.688190937 0.425325394 0.587785244
  endloop
 endfacet
facet normal 0.768627882 0.272064745 0.578957617
  outer loop
   vertex 0.862668455 0.259891927 0.433888555
   vertex 0.688190937 0.425325394 0.587785244
   vertex 0.702046454 0.16062203 0.693780482
  endloop
 endfacet
facet normal 0.562708616 0.810753167 0.161364108
  outer loop
   vertex 0.525731087 0.850650787 0
   vertex 0.433888555 0.862668455 0.259891927
   vertex 0.693780482 0.702046454 0.16062203
  endloop
 endfacet
facet normal 0.453033298 0.790459037 0.41223219
  outer loop
   vertex 0.309017003 0.809017003 0.5
   vertex 0.587785244 0.688190937 0.425325394
   vertex 0.433888555 0.862668455 0.259891927
  endloop
 endfacet
facet normal 0.705615878 0.634354413 0.315754205
  outer loop
   vertex 0.809017003 0.5 0.309017003
   vertex 0.693780482 0.702046454 0.16062203
   vertex 0.587785244 0.688190937 0.425325394
  endloop
 endfacet
facet normal 0.578957617 0.768627882 0.272064745
  outer loop
   vertex 0.433888555 0.862668455 0.259891927
   vertex 0.587785244 0.688190937 0.425325394
   vertex 0.693780482 0.702046454 0.16062203
  endloop
 endfacet
facet normal 0.548116565 0.451883465 0.703824997
  outer loop
   vertex 0.5 0.309017003 0.809017003
   vertex 0.688190937 0.425325394 0.587785244
   vertex 0.425325394 0.587785244 0.688190937
  endloop
 endfacet
facet normal 0.703824997 0.548116565 0.451883465
  outer loop
   vertex 0.809017003 0.5 0.309017003
   vertex 0.587785244 0.688190937 0.425325394
   vertex 0.688190937 0.425325394 0.587785244
  endloop
 endfacet
facet normal 0.451883465 0.703824997 0.548116565
  outer loop
   vertex 0.309017003 0.809017003 0.5
   vertex 0.425325394 0.587785244 0.688190937
   vertex 0.587785244 0.688190937 0.425325394
  endloop
 endfacet
facet normal 0.577350259 0.577350259 0.577350259
  outer loop
   vertex 0.688190937 0.425325394 0.587785244
   vertex 0.587785244 0.688190937 0.425325394
   vertex 0.425325394 0.587785244 0.688190937
  endloop
 endfacet
facet normal -0.0997285023 0.401344508 0.910481632
  outer loop
   vertex 0 0.525731087 0.850650787
   vertex -0.259891927 0.433888555 0.862668455
   vertex 0 0.273266524 0.961938381
  endloop
 endfacet
facet normal -0.351251453 0.293383718 0.88912791
  outer loop
   vertex -0.5 0.309017003 0.809017003
   vertex -0.262865543 0.16245985 0.95105654
   vertex -0.259891927 0.433888555 0.862668455
  endloop
 endfacet
facet normal -0.0986688659 0.137279078 0.985605836
  outer loop
   vertex 0 0 1
   vertex 0 0.273266524 0.961938381
   vertex -0.262865543 0.16245985 0.95105654
  endloop
 endfacet
facet normal -0.168145269 0.306892902 0.936773121
  outer loop
   vertex -0.259891927 0.433888555 0.862668455
   vertex -0.262865543 0.16245985 0.95105654
   vertex 0 0.273266524 0.961938381
  endloop
 endfacet
facet normal -0.749117553 0 0.662437081
  outer loop
   vertex -0.850650787 0 0.525731087
   vertex -0.702046454 -0.16062203 0.693780482
   vertex -0.702046454 0.16062203 0.693780482
  endloop
 endfacet
facet normal -0.573373675 -0.156104639 0.804284751
  outer loop
   vertex -0.5 -0.309017003 0.809017003
   vertex -0.525731087 0 0.850650787
   vertex -0.702046454 -0.16062203 0.693780482
  endloop
 endfacet
facet normal -0.573373675 0.156104639 0.804284751
  outer loop
   vertex -0.5 0.309017003 0.809017003
   vertex -0.702046454 0.16062203 0.693780482
   vertex -0.525731087 0 0.850650787
  endloop
 endfacet
facet normal -0.664708376 0 0.747102916
  outer loop
   vertex -0.702046454 -0.16062203 0.693780482
   vertex -0.525731087 0 0.850650787
   vertex -0.702046454 0.16062203 0.693780482
  endloop
 endfacet
facet normal -0.0997285023 -0.401344508 0.910481632
  outer loop
   vertex 0 -0.525731087 0.850650787
   vertex 0 -0.273266524 0.961938381
   vertex -0.259891927 -0.433888555 0.862668455
  endloop
 endfacet
facet normal -0.0986688659 -0.137279078 0.985605836
  outer loop
   vertex 0 0 1
   vertex -0.262865543 -0.16245985 0.95105654
   vertex 0 -0.273266524 0.961938381
  endloop
 endfacet
facet normal -0.351251453 -0.293383718 0.88912791
  outer loop
   vertex -0.5 -0.309017003 0.809017003
   vertex -0.259891927 -0.433888555 0.862668455
   vertex -0.262865543 -0.16245985 0.95105654
  endloop
 endfacet
facet normal -0.168145269 -0.306892902 0.936773121
  outer loop
   vertex 0 -0.273266524 0.961938381
   vertex -0.262865543 -0.16245985 0.95105654
   vertex -0.259891927 -0.433888555 0.862668455
  endloop
 endfacet
facet normal -0.434987754 0.155708432 0.886871219
  outer loop
   vertex -0.5 0.309017003 0.809017003
   vertex -0.525731087 0 0.850650787
   vertex -0.262865543 0.16245985 0.95105654
  endloop
 endfacet
facet normal -0.434987754 -0.155708432 0.886871219
  outer loop
   vertex -0.5 -0.309017003 0.809017003
   vertex -0.262865543 -0.16245985 0.95105654
   vertex -0.525731087 0 0.850650787
  endloop
 endfacet
facet normal -0.183046237 0 0.983104289
  outer loop
   vertex 0 0 1
   vertex -0.262865543 0.16245985 0.95105654
   vertex -0.262865543 -0.16245985 0.95105654
  endloop
 endfacet
facet normal -0.356822103 0 0.934172332
  outer loop
   vertex -0.525731087 0 0.850650787
   vertex -0.262865543 -0.16245985 0.95105654
   vertex -0.262865543 0.16245985 0.95105654
  endloop
 endfacet
facet normal -0.0997285023 0.401344508 -0.910481632
  outer loop
   vertex 0 0.525731087 -0.850650787
   vertex 0 0.273266524 -0.961938381
   vertex -0.259891927 0.433888555 -0.862668455
  endloop
 endfacet
facet normal -0.0986688659 0.137279078 -0.985605836
  outer loop
   vertex 0 0 -1
   vertex -0.262865543 0.16245985 -0.95105654
   vertex 0 0.273266524 -0.961938381
  endloop
 endfacet
facet normal -0.351251453 0.293383718 -0.88912791
  outer loop
   vertex -0.5 0.309017003 -0.809017003
   vertex -0.259891927 0.433888555 -0.862668455
   vertex -0.262865543 0.16245985 -0.95105654
  endloop
 endfacet
facet normal -0.168145269 0.306892902 -0.936773121
  outer loop
   vertex 0 0.273266524 -0.961938381
   vertex -0.262865543 0.16245985 -0.95105654
   vertex -0.259891927 0.433888555 -0.862668455
  endloop
 endfacet
facet normal -0.0997285023 -0.401344508 -0.910481632
  outer loop
   vertex 0 -0.525731087 -0.850650787
   vertex -0.259891927 -0.433888555 -0.862668455
   vertex 0 -0.273266524 -0.961938381
  endloop
 endfacet
facet normal -0.351251453 -0.293383718 -0.88912791
  outer loop
   vertex -0.5 -0.309017003 -0.809017003
   vertex -0.262865543 -0.16245985 -0.95105654
   vertex -0.259891927 -0.433888555 -0.862668455
  endloop
 endfacet
facet normal -0.0986688659 -0.137279078 -0.985605836
  outer loop
   vertex 0 0 -1
   vertex 0 -0.273266524 -0.961938381
   vertex -0.262865543 -0.16245985 -0.95105654
  endloop
 endfacet
facet normal -0.168145269 -0.306892902 -0.936773121
  outer loop
   vertex -0.259891927 -0.433888555 -0.862668455
   vertex -0.262865543 -0.16245985 -0.95105654
   vertex 0 -0.273266524 -0.961938381
  endloop
 endfacet
facet normal -0.749117553 0 -0.662437081
  outer loop
   vertex -0.850650787 0 -0.525731087
   vertex -0.702046454 0.16062203 -0.693780482
   vertex -0.702046454 -0.16062203 -0.693780482
  endloop
 endfacet
facet normal -0.573373675 0.156104639 -0.804284751
  outer loop
   vertex -0.5 0.309017003 -0.809017003
   vertex -0.525731087 0 -0.850650787
   vertex -0.702046454 0.16062203 -0.693780482
  endloop
 endfacet
facet normal -0.573373675 -0.156104639 -0.804284751
  outer loop
   vertex -0.5 -0.309017003 -0.809017003
   vertex -0.702046454 -0.16062203 -0.693780482
   vertex -0.525731087 0 -0.850650787
  endloop
 endfacet
facet normal -0.664708376 -0 -0.747102916
  outer loop
   vertex -0.702046454 0.16062203 -0.693780482
   vertex -0.525731087 0 -0.850650787
   vertex -0.702046454 -0.16062203 -0.693780482
  endloop
 endfacet
facet normal -0.183046237 0 -0.983104289
  outer loop
   vertex 0 0 -1
   vertex -0.262865543 -0.16245985 -0.95105654
   vertex -0.262865543 0.16245985 -0.95105654
  endloop
 endfacet
facet normal -0.434987754 -0.155708432 -0.886871219
  outer loop
   vertex -0.5 -0.309017003 -0.809017003
   vertex -0.525731087 0 -0.850650787
   vertex -0.262865543 -0.16245985 -0.95105654
  endloop
 endfacet
facet normal -0.434987754 0.155708432 -0.886871219
  outer loop
   vertex -0.5 0.309017003 -0.809017003
   vertex -0.262865543 0.16245985 -0.95105654
   vertex -0.525731087 0 -0.850650787
  endloop
 endfacet
facet normal -0.356822103 0 -0.934172332
  outer loop
   vertex -0.262865543 -0.16245985 -0.95105654
   vertex -0.525731087 0 -0.850650787
   vertex -0.262865543 0.16245985 -0.95105654
  endloop
 endfacet
facet normal 0.161364108 0.562708616 -0.810753167
  outer loop
   vertex 0 0.525731087 -0.850650787
   vertex 0.16062203 0.693780482 -0.702046454
   vertex 0.259891927 0.433888555 -0.862668455
  endloop
 endfacet
facet normal 0.315754205 0.705615878 -0.634354413
  outer loop
   vertex 0.309017003 0.809017003 -0.5
   vertex 0.425325394 0.587785244 -0.688190937
   vertex 0.16062203 0.693780482 -0.702046454
  endloop
 endfacet
facet normal 0.41223219 0.453033298 -0.790459037
  outer loop
   vertex 0.5 0.309017003 -0.809017003
   vertex 0.259891927 0.433888555 -0.862668455
   vertex 0.425325394 0.587785244 -0.688190937
  endloop
 endfacet
facet normal 0.272064745 0.578957617 -0.768627882
  outer loop
   vertex 0.16062203 0.693780482 -0.702046454
   vertex 0.425325394 0.587785244 -0.688190937
   vertex 0.259891927 0.433888555 -0.862668455
  endloop
 endfacet
facet normal 0.562708616 0.810753167 -0.161364108
  outer loop
   vertex 0.525731087 0.850650787 0
   vertex 0.693780482 0.702046454 -0.16062203
   vertex 0.433888555 0.862668455 -0.259891927
  endloop
 endfacet
facet normal 0.705615878 0.634354413 -0.315754205
  outer loop
   vertex 0.809017003 0.5 -0.309017003
   vertex 0.587785244 0.688190937 -0.425325394
   vertex 0.693780482 0.702046454 -0.16062203
  endloop
 endfacet
facet normal 0.453033298 0.790459037 -0.41223219
  outer loop
   vertex 0.309017003 0.809017003 -0.5
   vertex 0.433888555 0.862668455 -0.259891927
   vertex 0.587785244 0.688190937 -0.425325394
  endloop
 endfacet
facet normal 0.578957617 0.768627882 -0.272064745
  outer loop
   vertex 0.693780482 0.702046454 -0.16062203
   vertex 0.587785244 0.688190937 -0.425325394
   vertex 0.433888555 0.862668455 -0.259891927
  endloop
 endfacet
facet normal 0.810753167 0.161364108 -0.562708616
  outer loop
   vertex 0.850650787 0 -0.525731087
   vertex 0.702046454 0.16062203 -0.693780482
   vertex 0.862668455 0.259891927 -0.433888555
  endloop
 endfacet
facet normal 0.634354413 0.315754205 -0.705615878
  outer loop
   vertex 0.5 0.309017003 -0.809017003
   vertex 0.688190937 0.425325394 -0.587785244
   vertex 0.702046454 0.16062203 -0.693780482
  endloop
 endfacet
facet normal 0.790459037 0.41223219 -0.453033298
  outer loop
   vertex 0.809017003 0.5 -0.309017003
   vertex 0.862668455 0.259891927 -0.433888555
   vertex 0.688190937 0.425325394 -0.587785244
  endloop
 endfacet
facet normal 0.768627882 0.272064745 -0.578957617
  outer loop
   vertex 0.702046454 0.16062203 -0.693780482
   vertex 0.688190937 0.425325394 -0.587785244
   vertex 0.862668455 0.259891927 -0.433888555
  endloop
 endfacet
facet normal 0.451883465 0.703824997 -0.548116565
  outer loop
   vertex 0.309017003 0.809017003 -0.5
   vertex 0.587785244 0.688190937 -0.425325394
   vertex 0.425325394 0.587785244 -0.688190937
  endloop
 endfacet
facet normal 0.703824997 0.548116565 -0.451883465
  outer loop
   vertex 0.809017003 0.5 -0.309017003
   vertex 0.688190937 0.425325394 -0.587785244
   vertex 0.587785244 0.688190937 -0.425325394
  endloop
 endfacet
facet normal 0.548116565 0.451883465 -0.703824997
  outer loop
   vertex 0.5 0.309017003 -0.809017003
   vertex 0.425325394 0.587785244 -0.688190937
   vertex 0.688190937 0.425325394 -0.587785244
  endloop
 endfacet
facet normal 0.577350259 0.577350259 -0.577350259
  outer loop
   vertex 0.587785244 0.688190937 -0.425325394
   vertex 0.688190937 0.425325394 -0.587785244
   vertex 0.425325394 0.587785244 -0.688190937
  endloop
 endfacet
facet normal 0 0.662437081 -0.749117553
  outer loop
   vertex 0 0.525731087 -0.850650787
   vertex -0.16062203 0.693780482 -0.702046454
   vertex 0.16062203 0.693780482 -0.702046454
  endloop
 endfacet
facet normal -0.156104639 0.804284751 -0.573373675
  outer loop
   vertex -0.309017003 0.809017003 -0.5
   vertex 0 0.850650787 -0.525731087
   vertex -0.16062203 0.693780482 -0.702046454
  endloop
 endfacet
facet normal 0.156104639 0.804284751 -0.573373675
  outer loop
   vertex 0.309017003 0.809017003 -0.5
   vertex 0.16062203 0.693780482 -0.702046454
   vertex 0 0.850650787 -0.525731087
  endloop
 endfacet
facet normal 0 0.747102916 -0.664708376
  outer loop
   vertex -0.16062203 0.693780482 -0.702046454
   vertex 0 0.850650787 -0.525731087
   vertex 0.16062203 0.693780482 -0.702046454
  endloop
 endfacet
facet normal -0.401344508 0.910481632 -0.0997285023
  outer loop
   vertex -0.525731087 0.850650787 0
   vertex -0.273266524 0.961938381 0
   vertex -0.433888555 0.862668455 -0.259891927
  endloop
 endfacet
facet normal -0.137279078 0.985605836 -0.0986688659
  outer loop
   vertex 0 1 0
   vertex -0.16245985 0.95105654 -0.262865543
   vertex -0.273266524 0.961938381 0
  endloop
 endfacet
facet normal -0.293383718 0.88912791 -0.351251453
  outer loop
   vertex -0.309017003 0.809017003 -0.5
   vertex -0.433888555 0.862668455 -0.259891927
   vertex -0.16245985 0.95105654 -0.262865543
  endloop
 endfacet
facet normal -0.306892902 0.936773121 -0.168145269
  outer loop
   vertex -0.273266524 0.961938381 0
   vertex -0.16245985 0.95105654 -0.262865543
   vertex -0.433888555 0.862668455 -0.259891927
  endloop
 endfacet
facet normal 0.401344508 0.910481632 -0.0997285023
  outer loop
   vertex 0.525731087 0.850650787 0
   vertex 0.433888555 0.862668455 -0.259891927
   vertex 0.273266524 0.961938381 0
  endloop
 endfacet
facet normal 0.293383718 0.88912791 -0.351251453
  outer loop
   vertex 0.309017003 0.809017003 -0.5
   vertex 0.16245985 0.95105654 -0.262865543
   vertex 0.433888555 0.862668455 -0.259891927
  endloop
 endfacet
facet normal 0.137279078 0.985605836 -0.0986688659
  outer loop
   vertex 0 1 0
   vertex 0.273266524 0.961938381 0
   vertex 0.16245985 0.95105654 -0.262865543
  endloop
 endfacet
facet normal 0.306892902 0.936773121 -0.168145269
  outer loop
   vertex 0.433888555 0.862668455 -0.259891927
   vertex 0.16245985 0.95105654 -0.262865543
   vertex 0.273266524 0.961938381 0
  endloop
 endfacet
facet normal -0.155708432 0.886871219 -0.434987754
  outer loop
   vertex -0.309017003 0.809017003 -0.5
   vertex -0.16245985 0.95105654 -0.262865543
   vertex 0 0.850650787 -0.525731087
  endloop
 endfacet
facet normal 0 0.983104289 -0.183046237
  outer loop
   vertex 0 1 0
   vertex 0.16245985 0.95105654 -0.262865543
   vertex -0.16245985 0.95105654 -0.262865543
  endloop
 endfacet
facet normal 0.155708432 0.886871219 -0.434987754
  outer loop
   vertex 0.309017003 0.809017003 -0.5
   vertex 0 0.850650787 -0.525731087
   vertex 0.16245985 0.95105654 -0.262865543
  endloop
 endfacet
facet normal 0 0.934172332 -0.356822103
  outer loop
   vertex -0.16245985 0.95105654 -0.262865543
   vertex 0.16245985 0.95105654 -0.262865543
   vertex 0 0.850650787 -0.525731087
  endloop
 endfacet
facet normal -0.161364108 0.562708616 -0.810753167
  outer loop
   vertex 0 0.525731087 -0.850650787
   vertex -0.259891927 0.433888555 -0.862668455
   vertex -0.16062203 0.693780482 -0.702046454
  endloop
 endfacet
facet normal -0.41223219 0.453033298 -0.790459037
  outer loop
   vertex -0.5 0.309017003 -0.809017003
   vertex -0.425325394 0.587785244 -0.688190937
   vertex -0.259891927 0.433888555 -0.862668455
  endloop
 endfacet
facet normal -0.315754205 0.705615878 -0.634354413
  outer loop
   vertex -0.309017003 0.809017003 -0.5
   vertex -0.16062203 0.693780482 -0.702046454
   vertex -0.425325394 0.587785244 -0.688190937
  endloop
 endfacet
facet normal -0.272064745 0.578957617 -0.768627882
  outer loop
   vertex -0.259891927 0.433888555 -0.862668455
   vertex -0.425325394 0.587785244 -0.688190937
   vertex -0.16062203 0.693780482 -0.702046454
  endloop
 endfacet
facet normal -0.810753167 0.161364108 -0.562708616
  outer loop
   vertex -0.850650787 0 -0.525731087
   vertex -0.862668455 0.259891927 -0.433888555
   vertex -0.702046454 0.16062203 -0.693780482
  endloop
 endfacet
facet normal -0.790459037 0.41223219 -0.453033298
  outer loop
   vertex -0.809017003 0.5 -0.309017003
   vertex -0.688190937 0.425325394 -0.587785244
   vertex -0.862668455 0.259891927 -0.433888555
  endloop
 endfacet
facet normal -0.634354413 0.315754205 -0.705615878
  outer loop
   vertex -0.5 0.309017003 -0.809017003
   vertex -0.702046454 0.16062203 -0.693780482
   vertex -0.688190937 0.425325394 -0.587785244
  endloop
 endfacet
facet normal -0.768627882 0.272064745 -0.578957617
  outer loop
   vertex -0.862668455 0.259891927 -0.433888555
   vertex -0.688190937 0.425325394 -0.587785244
   vertex -0.702046454 0.16062203 -0.693780482
  endloop
 endfacet
facet normal -0.562708616 0.810753167 -0.161364108
  outer loop
   vertex -0.525731087 0.850650787 0
   vertex -0.433888555 0.862668455 -0.259891927
   vertex -0.693780482 0.702046454 -0.16062203
  endloop
 endfacet
facet normal -0.453033298 0.790459037 -0.41223219
  outer loop
   vertex -0.309017003 0.809017003 -0.5
   vertex -0.587785244 0.688190937 -0.425325394
   vertex -0.433888555 0.862668455 -0.259891927
  endloop
 endfacet
facet normal -0.705615878 0.634354413 -0.315754205
  outer loop
   vertex -0.809017003 0.5 -0.309017003
   vertex -0.693780482 0.702046454 -0.16062203
   vertex -0.587785244 0.688190937 -0.425325394
  endloop
 endfacet
facet normal -0.578957617 0.768627882 -0.272064745
  outer loop
   vertex -0.433888555 0.862668455 -0.259891927
   vertex -0.587785244 0.688190937 -0.425325394
   vertex -0.693780482 0.702046454 -0.16062203
  endloop
 endfacet
facet normal -0.548116565 0.451883465 -0.703824997
  outer loop
   vertex -0.5 0.309017003 -0.809017003
   vertex -0.688190937 0.425325394 -0.587785244
   vertex -0.425325394 0.587785244 -0.688190937
  endloop
 endfacet
facet normal -0.703824997 0.548116565 -0.451883465
  outer loop
   vertex -0.809017003 0.5 -0.309017003
   vertex -0.587785244 0.688190937 -0.425325394
   vertex -0.688190937 0.425325394 -0.587785244
  endloop
 endfacet
facet normal -0.451883465 0.703824997 -0.548116565
  outer loop
   vertex -0.309017003 0.809017003 -0.5
   vertex -0.425325394 0.587785244 -0.688190937
   vertex -0.587785244 0.688190937 -0.425325394
  endloop
 endfacet
facet normal -0.577350259 0.577350259 -0.577350259
  outer loop
   vertex -0.688190937 0.425325394 -0.587785244
   vertex -0.587785244 0.688190937 -0.425325394
   vertex -0.425325394 0.587785244 -0.688190937
  endloop
 endfacet
facet normal 0.0997285023 0.401344508 -0.910481632
  outer loop
   vertex 0 0.525731087 -0.850650787
   vertex 0.259891927 0.433888555 -0.862668455
   vertex 0 0.273266524 -0.961938381
  endloop
 endfacet
facet normal 0.351251453 0.293383718 -0.88912791
  outer loop
   vertex 0.5 0.309017003 -0.809017003
   vertex 0.262865543 0.16245985 -0.95105654
   vertex 0.259891927 0.433888555 -0.862668455
  endloop
 endfacet
facet normal 0.0986688659 0.137279078 -0.985605836
  outer loop
   vertex 0 0 -1
   vertex 0 0.273266524 -0.961938381
   vertex 0.262865543 0.16245985 -0.95105654
  endloop
 endfacet
facet normal 0.168145269 0.306892902 -0.936773121
  outer loop
   vertex 0.259891927 0.433888555 -0.862668455
   vertex 0.262865543 0.16245985 -0.95105654
   vertex 0 0.273266524 -0.961938381
  endloop
 endfacet
facet normal 0.749117553 0 -0.662437081
  outer loop
   vertex 0.850650787 0 -0.525731087
   vertex 0.702046454 -0.16062203 -0.693780482
   vertex 0.702046454 0.16062203 -0.693780482
  endloop
 endfacet
facet normal 0.573373675 -0.156104639 -0.804284751
  outer loop
   vertex 0.5 -0.309017003 -0.809017003
   vertex 0.525731087 0 -0.850650787
   vertex 0.702046454 -0.16062203 -0.693780482
  endloop
 endfacet
facet normal 0.573373675 0.156104639 -0.804284751
  outer loop
   vertex 0.5 0.309017003 -0.809017003
   vertex 0.702046454 0.16062203 -0.693780482
   vertex 0.525731087 0 -0.850650787
  endloop
 endfacet
facet normal 0.664708376 0 -0.747102916
  outer loop
   vertex 0.702046454 -0.16062203 -0.693780482
   vertex 0.525731087 0 -0.850650787
   vertex 0.702046454 0.16062203 -0.693780482
  endloop
 endfacet
facet normal 0.0997285023 -0.401344508 -0.910481632
  outer loop
   vertex 0 -0.525731087 -0.850650787
   vertex 0 -0.273266524 -0.961938381
   vertex 0.259891927 -0.433888555 -0.862668455
  endloop
 endfacet
facet normal 0.0986688659 -0.137279078 -0.985605836
  outer loop
   vertex 0 0 -1
   vertex 0.262865543 -0.16245985 -0.95105654
   vertex 0 -0.273266524 -0.961938381
  endloop
 endfacet
facet normal 0.351251453 -0.293383718 -0.88912791
  outer loop
   vertex 0.5 -0.309017003 -0.809017003
   vertex 0.259891927 -0.433888555 -0.862668455
   vertex 0.262865543 -0.16245985 -0.95105654
  endloop
 endfacet
facet normal 0.168145269 -0.306892902 -0.936773121
  outer loop
   vertex 0 -0.273266524 -0.961938381
   vertex 0.262865543 -0.16245985 -0.95105654
   vertex 0.259891927 -0.433888555 -0.862668455
  endloop
 endfacet
facet normal 0.434987754 0.155708432 -0.886871219
  outer loop
   vertex 0.5 0.309017003 -0.809017003
   vertex 0.525731087 0 -0.850650787
   vertex 0.262865543 0.16245985 -0.95105654
  endloop
 endfacet
facet normal 0.434987754 -0.155708432 -0.886871219
  outer loop
   vertex 0.5 -0.309017003 -0.809017003
   vertex 0.262865543 -0.16245985 -0.95105654
   vertex 0.525731087 0 -0.850650787
  endloop
 endfacet
facet normal 0.183046237 0 -0.983104289
  outer loop
   vertex 0 0 -1
   vertex 0.262865543 0.16245985 -0.95105654
   vertex 0.262865543 -0.16245985 -0.95105654
  endloop
 endfacet
facet normal 0.356822103 0 -0.934172332
  outer loop
   vertex 0.525731087 0 -0.850650787
   vertex 0.262865543 -0.16245985 -0.95105654
   vertex 0.262865543 0.16245985 -0.95105654
  endloop
 endfacet
facet normal 0 -0.662437081 -0.749117553
  outer loop
   vertex 0 -0.525731087 -0.850650787
   vertex 0.16062203 -0.693780482 -0.702046454
   vertex -0.16062203 -0.693780482 -0.702046454
  endloop
 endfacet
facet normal 0.156104639 -0.804284751 -0.573373675
  outer loop
   vertex 0.309017003 -0.809017003 -0.5
   vertex 0 -0.850650787 -0.525731087
   vertex 0.16062203 -0.693780482 -0.702046454
  endloop
 endfacet
facet normal -0.156104639 -0.804284751 -0.573373675
  outer loop
   vertex -0.309017003 -0.809017003 -0.5
   vertex -0.16062203 -0.693780482 -0.702046454
   vertex 0 -0.850650787 -0.525731087
  endloop
 endfacet
facet normal -0 -0.747102916 -0.664708376
  outer loop
   vertex 0.16062203 -0.693780482 -0.702046454
   vertex 0 -0.850650787 -0.525731087
   vertex -0.16062203 -0.693780482 -0.702046454
  endloop
 endfacet
facet normal 0.401344508 -0.910481632 -0.0997285023
  outer loop
   vertex 0.525731087 -0.850650787 0
   vertex 0.273266524 -0.961938381 0
   vertex 0.433888555 -0.862668455 -0.259891927
  endloop
 endfacet
facet normal 0.137279078 -0.985605836 -0.0986688659
  outer loop
   vertex 0 -1 0
   vertex 0.16245985 -0.95105654 -0.262865543
   vertex 0.273266524 -0.961938381 0
  endloop
 endfacet
facet normal 0.293383718 -0.88912791 -0.351251453
  outer loop
   vertex 0.309017003 -0.809017003 -0.5
   vertex 0.433888555 -0.862668455 -0.259891927
   vertex 0.16245985 -0.95105654 -0.262865543
  endloop
 endfacet
facet normal 0.306892902 -0.936773121 -0.168145269
  outer loop
   vertex 0.273266524 -0.961938381 0
   vertex 0.16245985 -0.95105654 -0.262865543
   vertex 0.433888555 -0.862668455 -0.259891927
  endloop
 endfacet
facet normal -0.401344508 -0.910481632 -0.0997285023
  outer loop
   vertex -0.525731087 -0.850650787 0
   vertex -0.433888555 -0.862668455 -0.259891927
   vertex -0.273266524 -0.961938381 0
  endloop
 endfacet
facet normal -0.293383718 -0.88912791 -0.351251453
  outer loop
   vertex -0.309017003 -0.809017003 -0.5
   vertex -0.16245985 -0.95105654 -0.262865543
   vertex -0.433888555 -0.862668455 -0.259891927
  endloop
 endfacet
facet normal -0.137279078 -0.985605836 -0.0986688659
  outer loop
   vertex 0 -1 0
   vertex -0.273266524 -0.961938381 0
   vertex -0.16245985 -0.95105654 -0.262865543
  endloop
 endfacet
facet normal -0.306892902 -0.936773121 -0.168145269
  outer loop
   vertex -0.433888555 -0.862668455 -0.259891927
   vertex -0.16245985 -0.95105654 -0.262865543
   vertex -0.273266524 -0.961938381 0
  endloop
 endfacet
facet normal 0.155708432 -0.886871219 -0.434987754
  outer loop
   vertex 0.309017003 -0.809017003 -0.5
   vertex 0.16245985 -0.95105654 -0.262865543
   vertex 0 -0.850650787 -0.525731087
  endloop
 endfacet
facet normal 0 -0.983104289 -0.183046237
  outer loop
   vertex 0 -1 0
   vertex -0.16245985 -0.95105654 -0.262865543
   vertex 0.16245985 -0.95105654 -0.262865543
  endloop
 endfacet
facet normal -0.155708432 -0.886871219 -0.434987754
  outer loop
   vertex -0.309017003 -0.809017003 -0.5
   vertex 0 -0.850650787 -0.525731087
   vertex -0.16245985 -0.95105654 -0.262865543
  endloop
 endfacet
facet normal -0 -0.934172332 -0.356822103
  outer loop
   vertex 0.16245985 -0.95105654 -0.262865543
   vertex -0.16245985 -0.95105654 -0.262865543
   vertex 0 -0.850650787 -0.525731087
  endloop
 endfacet
facet normal -0.161364108 -0.562708616 -0.810753167
  outer loop
   vertex 0 -0.525731087 -0.850650787
   vertex -0.16062203 -0.693780482 -0.702046454
   vertex -0.259891927 -0.433888555 -0.862668455
  endloop
 endfacet
facet normal -0.315754205 -0.705615878 -0.634354413
  outer loop
   vertex -0.309017003 -0.809017003 -0.5
   vertex -0.425325394 -0.587785244 -0.688190937
   vertex -0.16062203 -0.693780482 -0.702046454
  endloop
 endfacet
facet normal -0.41223219 -0.453033298 -0.790459037
  outer loop
   vertex -0.5 -0.309017003 -0.809017003
   vertex -0.259891927 -0.433888555 -0.862668455
   vertex -0.425325394 -0.587785244 -0.688190937
  endloop
 endfacet
facet normal -0.272064745 -0.578957617 -0.768627882
  outer loop
   vertex -0.16062203 -0.693780482 -0.702046454
   vertex -0.425325394 -0.587785244 -0.688190937
   vertex -0.259891927 -0.433888555 -0.862668455
  endloop
 endfacet
facet normal -0.562708616 -0.810753167 -0.161364108
  outer loop
   vertex -0.525731087 -0.850650787 0
   vertex -0.693780482 -0.702046454 -0.16062203
   vertex -0.433888555 -0.862668455 -0.259891927
  endloop
 endfacet
facet normal -0.705615878 -0.634354413 -0.315754205
  outer loop
   vertex -0.809017003 -0.5 -0.309017003
   vertex -0.587785244 -0.688190937 -0.425325394
   vertex -0.693780482 -0.702046454 -0.16062203
  endloop
 endfacet
facet normal -0.453033298 -0.790459037 -0.41223219
  outer loop
   vertex -0.309017003 -0.809017003 -0.5
   vertex -0.433888555 -0.862668455 -0.259891927
   vertex -0.587785244 -0.688190937 -0.425325394
  endloop
 endfacet
facet normal -0.578957617 -0.768627882 -0.272064745
  outer loop
   vertex -0.693780482 -0.702046454 -0.16062203
   vertex -0.587785244 -0.688190937 -0.425325394
   vertex -0.433888555 -0.862668455 -0.259891927
  endloop
 endfacet
facet normal -0.810753167 -0.161364108 -0.562708616
  outer loop
   vertex -0.850650787 0 -0.525731087
   vertex -0.702046454 -0.16062203 -0.693780482
   vertex -0.862668455 -0.259891927 -0.433888555
  endloop
 endfacet
facet normal -0.634354413 -0.315754205 -0.705615878
  outer loop
   vertex -0.5 -0.309017003 -0.809017003
   vertex -0.688190937 -0.425325394 -0.587785244
   vertex -0.702046454 -0.16062203 -0.693780482
  endloop
 endfacet
facet normal -0.790459037 -0.41223219 -0.453033298
  outer loop
   vertex -0.809017003 -0.5 -0.309017003
   vertex -0.862668455 -0.259891927 -0.433888555
   vertex -0.688190937 -0.425325394 -0.587785244
  endloop
 endfacet
facet normal -0.768627882 -0.272064745 -0.578957617
  outer loop
   vertex -0.702046454 -0.16062203 -0.693780482
   vertex -0.688190937 -0.425325394 -0.587785244
   vertex -0.862668455 -0.259891927 -0.433888555
  endloop
 endfacet
facet normal -0.451883465 -0.703824997 -0.548116565
  outer loop
   vertex -0.309017003 -0.809017003 -0.5
   vertex -0.587785244 -0.688190937 -0.425325394
   vertex -0.425325394 -0.587785244 -0.688190937
  endloop
 endfacet
facet normal -0.703824997 -0.548116565 -0.451883465
  outer loop
   vertex -0.809017003 -0.5 -0.309017003
   vertex -0.688190937 -0.425325394 -0.587785244
   vertex -0.587785244 -0.688190937 -0.425325394
  endloop
 endfacet
facet normal -0.548116565 -0.451883465 -0.703824997
  outer loop
   vertex -0.5 -0.309017003 -0.809017003
   vertex -0.425325394 -0.587785244 -0.688190937
   vertex -0.688190937 -0.425325394 -0.587785244
  endloop
 endfacet
facet normal -0.577350259 -0.577350259 -0.577350259
  outer loop
   vertex -0.587785244 -0.688190937 -0.425325394
   vertex -0.688190937 -0.425325394 -0.587785244
   vertex -0.425325394 -0.587785244 -0.688190937
  endloop
 endfacet
facet normal 0.161364108 -0.562708616 -0.810753167
  outer loop
   vertex 0 -0.525731087 -0.850650787
   vertex 0.259891927 -0.433888555 -0.862668455
   vertex 0.16062203 -0.693780482 -0.702046454
  endloop
 endfacet
facet normal 0.41223219 -0.453033298 -0.790459037
  outer loop
   vertex 0.5 -0.309017003 -0.809017003
   vertex 0.425325394 -0.587785244 -0.688190937
   vertex 0.259891927 -0.433888555 -0.862668455
  endloop
 endfacet
facet normal 0.315754205 -0.705615878 -0.634354413
  outer loop
   vertex 0.309017003 -0.809017003 -0.5
   vertex 0.16062203 -0.693780482 -0.702046454
   vertex 0.425325394 -0.587785244 -0.688190937
  endloop
 endfacet
facet normal 0.272064745 -0.578957617 -0.768627882
  outer loop
   vertex 0.259891927 -0.433888555 -0.862668455
   vertex 0.425325394 -0.587785244 -0.688190937
   vertex 0.16062203 -0.693780482 -0.702046454
  endloop
 endfacet
facet normal 0.810753167 -0.161364108 -0.562708616
  outer loop
   vertex 0.850650787 0 -0.525731087
   vertex 0.862668455 -0.259891927 -0.433888555
   vertex 0.702046454 -0.16062203 -0.693780482
  endloop
 endfacet
facet normal 0.790459037 -0.41223219 -0.453033298
  outer loop
   vertex 0.809017003 -0.5 -0.309017003
   vertex 0.688190937 -0.425325394 -0.587785244
   vertex 0.862668455 -0.259891927 -0.433888555
  endloop
 endfacet
facet normal 0.634354413 -0.315754205 -0.705615878
  outer loop
   vertex 0.5 -0.309017003 -0.809017003
   vertex 0.702046454 -0.16062203 -0.693780482
   vertex 0.688190937 -0.425325394 -0.587785244
  endloop
 endfacet
facet normal 0.768627882 -0.272064745 -0.578957617
  outer loop
   vertex 0.862668455 -0.259891927 -0.433888555
   vertex 0.688190937 -0.425325394 -0.587785244
   vertex 0.702046454 -0.16062203 -0.693780482
  endloop
 endfacet
facet normal 0.562708616 -0.810753167 -0.161364108
  outer loop
   vertex 0.525731087 -0.850650787 0
   vertex 0.433888555 -0.862668455 -0.259891927
   vertex 0.693780482 -0.702046454 -0.16062203
  endloop
 endfacet
facet normal 0.453033298 -0.790459037 -0.41223219
  outer loop
   vertex 0.309017003 -0.809017003 -0.5
   vertex 0.587785244 -0.688190937 -0.425325394
   vertex 0.433888555 -0.862668455 -0.259891927
  endloop
 endfacet
facet normal 0.705615878 -0.634354413 -0.315754205
  outer loop
   vertex 0.809017003 -0.5 -0.309017003
   vertex 0.693780482 -0.702046454 -0.16062203
   vertex 0.587785244 -0.688190937 -0.425325394
  endloop
 endfacet
facet normal 0.578957617 -0.768627882 -0.272064745
  outer loop
   vertex 0.433888555 -0.862668455 -0.259891927
   vertex 0.587785244 -0.688190937 -0.425325394
   vertex 0.693780482 -0.702046454 -0.16062203
  endloop
 endfacet
facet normal 0.548116565 -0.451883465 -0.703824997
  outer loop
   vertex 0.5 -0.309017003 -0.809017003
   vertex 0.688190937 -0.425325394 -0.587785244
   vertex 0.425325394 -0.587785244 -0.688190937
  endloop
 endfacet
facet normal 0.703824997 -0.548116565 -0.451883465
  outer loop
   vertex 0.809017003 -0.5 -0.309017003
   vertex 0.587785244 -0.688190937 -0.425325394
   vertex 0.688190937 -0.425325394 -0.587785244
  endloop
 endfacet
facet normal 0.451883465 -0.703824997 -0.548116565
  outer loop
   vertex 0.309017003 -0.809017003 -0.5
   vertex 0.425325394 -0.587785244 -0.688190937
   vertex 0.587785244 -0.688190937 -0.425325394
  endloop
 endfacet
facet normal 0.577350259 -0.577350259 -0.577350259
  outer loop
   vertex 0.688190937 -0.425325394 -0.587785244
   vertex 0.587785244 -0.688190937 -0.425325394
   vertex 0.425325394 -0.587785244 -0.688190937
  endloop
 endfacet
facet normal 0.161364108 -0.562708616 0.810753167
  outer loop
   vertex 0 -0.525731087 0.850650787
   vertex 0.16062203 -0.693780482 0.702046454
   vertex 0.259891927 -0.433888555 0.862668455
  endloop
 endfacet
facet normal 0.315754205 -0.705615878 0.634354413
  outer loop
   vertex 0.309017003 -0.809017003 0.5
   vertex 0.425325394 -0.587785244 0.688190937
   vertex 0.16062203 -0.693780482 0.702046454
  endloop
 endfacet
facet normal 0.41223219 -0.453033298 0.790459037
  outer loop
   vertex 0.5 -0.309017003 0.809017003
   vertex 0.259891927 -0.433888555 0.862668455
   vertex 0.425325394 -0.587785244 0.688190937
  endloop
 endfacet
facet normal 0.272064745 -0.578957617 0.768627882
  outer loop
   vertex 0.16062203 -0.693780482 0.702046454
   vertex 0.425325394 -0.587785244 0.688190937
   vertex 0.259891927 -0.433888555 0.862668455
  endloop
 endfacet
facet normal 0.562708616 -0.810753167 0.161364108
  outer loop
   vertex 0.525731087 -0.850650787 0
   vertex 0.693780482 -0.702046454 0.16062203
   vertex 0.433888555 -0.862668455 0.259891927
  endloop
 endfacet
facet normal 0.705615878 -0.634354413 0.315754205
  outer loop
   vertex 0.809017003 -0.5 0.309017003
   vertex 0.587785244 -0.688190937 0.425325394
   vertex 0.693780482 -0.702046454 0.16062203
  endloop
 endfacet
facet normal 0.453033298 -0.790459037 0.41223219
  outer loop
   vertex 0.309017003 -0.809017003 0.5
   vertex 0.433888555 -0.862668455 0.259891927
   vertex 0.587785244 -0.688190937 0.425325394
  endloop
 endfacet
facet normal 0.578957617 -0.768627882 0.272064745
  outer loop
   vertex 0.693780482 -0.702046454 0.16062203
   vertex 0.587785244 -0.688190937 0.425325394
   vertex 0.433888555 -0.862668455 0.259891927
  endloop
 endfacet
facet normal 0.810753167 -0.161364108 0.562708616
  outer loop
   vertex 0.850650787 0 0.525731087
   vertex 0.702046454 -0.16062203 0.693780482
   vertex 0.862668455 -0.259891927 0.433888555
  endloop
 endfacet
facet normal 0.634354413 -0.315754205 0.705615878
  outer loop
   vertex 0.5 -0.309017003 0.809017003
   vertex 0.688190937 -0.425325394 0.587785244
   vertex 0.702046454 -0.16062203 0.693780482
  endloop
 endfacet
facet normal 0.790459037 -0.41223219 0.453033298
  outer loop
   vertex 0.809017003 -0.5 0.309017003
   vertex 0.862668455 -0.259891927 0.433888555
   vertex 0.688190937 -0.425325394 0.587785244
  endloop
 endfacet
facet normal 0.768627882 -0.272064745 0.578957617
  outer loop
   vertex 0.702046454 -0.16062203 0.693780482
   vertex 0.688190937 -0.425325394 0.587785244
   vertex 0.862668455 -0.259891927 0.433888555
  endloop
 endfacet
facet normal 0.451883465 -0.703824997 0.548116565
  outer loop
   vertex 0.309017003 -0.809017003 0.5
   vertex 0.587785244 -0.688190937 0.425325394
   vertex 0.425325394 -0.587785244 0.688190937
  endloop
 endfacet
facet normal 0.703824997 -0.548116565 0.451883465
  outer loop
   vertex 0.809017003 -0.5 0.309017003
   vertex 0.688190937 -0.425325394 0.587785244
   vertex 0.587785244 -0.688190937 0.425325394
  endloop
 endfacet
facet normal 0.548116565 -0.451883465 0.703824997
  outer loop
   vertex 0.5 -0.309017003 0.809017003
   vertex 0.425325394 -0.587785244 0.688190937
   vertex 0.688190937 -0.425325394 0.587785244
  endloop
 endfacet
facet normal 0.577350259 -0.577350259 0.577350259
  outer loop
   vertex 0.587785244 -0.688190937 0.425325394
   vertex 0.688190937 -0.425325394 0.587785244
   vertex 0.425325394 -0.587785244 0.688190937
  endloop
 endfacet
facet normal 0 -0.662437081 0.749117553
  outer loop
   vertex 0 -0.525731087 0.850650787
   vertex -0.16062203 -0.693780482 0.702046454
   vertex 0.16062203 -0.693780482 0.702046454
  endloop
 endfacet
facet normal -0.156104639 -0.804284751 0.573373675
  outer loop
   vertex -0.309017003 -0.809017003 0.5
   vertex 0 -0.850650787 0.525731087
   vertex -0.16062203 -0.693780482 0.702046454
  endloop
 endfacet
facet normal 0.156104639 -0.804284751 0.573373675
  outer loop
   vertex 0.309017003 -0.809017003 0.5
   vertex 0.16062203 -0.693780482 0.702046454
   vertex 0 -0.850650787 0.525731087
  endloop
 endfacet
facet normal 0 -0.747102916 0.664708376
  outer loop
   vertex -0.16062203 -0.693780482 0.702046454
   vertex 0 -0.850650787 0.525731087
   vertex 0.16062203 -0.693780482 0.702046454
  endloop
 endfacet
facet normal -0.401344508 -0.910481632 0.0997285023
  outer loop
   vertex -0.525731087 -0.850650787 0
   vertex -0.273266524 -0.961938381 0
   vertex -0.433888555 -0.862668455 0.259891927
  endloop
 endfacet
facet normal -0.137279078 -0.985605836 0.0986688659
  outer loop
   vertex 0 -1 0
   vertex -0.16245985 -0.95105654 0.262865543
   vertex -0.273266524 -0.961938381 0
  endloop
 endfacet
facet normal -0.293383718 -0.88912791 0.351251453
  outer loop
   vertex -0.309017003 -0.809017003 0.5
   vertex -0.433888555 -0.862668455 0.259891927
   vertex -0.16245985 -0.95105654 0.262865543
  endloop
 endfacet
facet normal -0.306892902 -0.936773121 0.168145269
  outer loop
   vertex -0.273266524 -0.961938381 0
   vertex -0.16245985 -0.95105654 0.262865543
   vertex -0.433888555 -0.862668455 0.259891927
  endloop
 endfacet
facet normal 0.401344508 -0.910481632 0.0997285023
  outer loop
   vertex 0.525731087 -0.850650787 0
   vertex 0.433888555 -0.862668455 0.259891927
   vertex 0.273266524 -0.961938381 0
  endloop
 endfacet
facet normal 0.293383718 -0.88912791 0.351251453
  outer loop
   vertex 0.309017003 -0.809017003 0.5
   vertex 0.16245985 -0.95105654 0.262865543
   vertex 0.433888555 -0.862668455 0.259891927
  endloop
 endfacet
facet normal 0.137279078 -0.985605836 0.0986688659
  outer loop
   vertex 0 -1 0
   vertex 0.273266524 -0.961938381 0
   vertex 0.16245985 -0.95105654 0.262865543
  endloop
 endfacet
facet normal 0.306892902 -0.936773121 0.168145269
  outer loop
   vertex 0.433888555 -0.862668455 0.259891927
   vertex 0.16245985 -0.95105654 0.262865543
   vertex 0.273266524 -0.961938381 0
  endloop
 endfacet
facet normal -0.155708432 -0.886871219 0.434987754
  outer loop
   vertex -0.309017003 -0.809017003 0.5
   vertex -0.16245985 -0.95105654 0.262865543
   vertex 0 -0.850650787 0.525731087
  endloop
 endfacet
facet normal 0 -0.983104289 0.183046237
  outer loop
   vertex 0 -1 0
   vertex 0.16245985 -0.95105654 0.262865543
   vertex -0.16245985 -0.95105654 0.262865543
  endloop
 endfacet
facet normal 0.155708432 -0.886871219 0.434987754
  outer loop
   vertex 0.309017003 -0.809017003 0.5
   vertex 0 -0.850650787 0.525731087
   vertex 0.16245985 -0.95105654 0.262865543
  endloop
 endfacet
facet normal 0 -0.934172332 0.356822103
  outer loop
   vertex -0.16245985 -0.95105654 0.262865543
   vertex 0.16245985 -0.95105654 0.262865543
   vertex 0 -0.850650787 0.525731087
  endloop
 endfacet
facet normal -0.161364108 -0.562708616 0.810753167
  outer loop
   vertex 0 -0.525731087 0.850650787
   vertex -0.259891927 -0.433888555 0.862668455
   vertex -0.16062203 -0.693780482 0.702046454
  endloop
 endfacet
facet normal -0.41223219 -0.453033298 0.790459037
  outer loop
   vertex -0.5 -0.309017003 0.809017003
   vertex -0.425325394 -0.587785244 0.688190937
   vertex -0.259891927 -0.433888555 0.862668455
  endloop
 endfacet
facet normal -0.315754205 -0.705615878 0.634354413
  outer loop
   vertex -0.309017003 -0.809017003 0.5
   vertex -0.16062203 -0.693780482 0.702046454
   vertex -0.425325394 -0.587785244 0.688190937
  endloop
 endfacet
facet normal -0.272064745 -0.578957617 0.768627882
  outer loop
   vertex -0.259891927 -0.433888555 0.862668455
   vertex -0.425325394 -0.587785244 0.688190937
   vertex -0.16062203 -0.693780482 0.702046454
  endloop
 endfacet
facet normal -0.810753167 -0.161364108 0.562708616
  outer loop
   vertex -0.850650787 0 0.525731087
   vertex -0.862668455 -0.259891927 0.433888555
   vertex -0.702046454 -0.16062203 0.693780482
  endloop
 endfacet
facet normal -0.790459037 -0.41223219 0.453033298
  outer loop
   vertex -0.809017003 -0.5 0.309017003
   vertex -0.688190937 -0.425325394 0.587785244
   vertex -0.862668455 -0.259891927 0.433888555
  endloop
 endfacet
facet normal -0.634354413 -0.315754205 0.705615878
  outer loop
   vertex -0.5 -0.309017003 0.809017003
   vertex -0.702046454 -0.16062203 0.693780482
   vertex -0.688190937 -0.425325394 0.587785244
  endloop
 endfacet
facet normal -0.768627882 -0.272064745 0.578957617
  outer loop
   vertex -0.862668455 -0.259891927 0.433888555
   vertex -0.688190937 -0.425325394 0.587785244
   vertex -0.702046454 -0.16062203 0.693780482
  endloop
 endfacet
facet normal -0.562708616 -0.810753167 0.161364108
  outer loop
   vertex -0.525731087 -0.850650787 0
   vertex -0.433888555 -0.862668455 0.259891927
   vertex -0.693780482 -0.702046454 0.16062203
  endloop
 endfacet
facet normal -0.453033298 -0.790459037 0.41223219
  outer loop
   vertex -0.309017003 -0.809017003 0.5
   vertex -0.587785244 -0.688190937 0.425325394
   vertex -0.433888555 -0.862668455 0.259891927
  endloop
 endfacet
facet normal -0.705615878 -0.634354413 0.315754205
  outer loop
   vertex -0.809017003 -0.5 0.309017003
   vertex -0.693780482 -0.702046454 0.16062203
   vertex -0.587785244 -0.688190937 0.425325394
  endloop
 endfacet
facet normal -0.578957617 -0.768627882 0.272064745
  outer loop
   vertex -0.433888555 -0.862668455 0.259891927
   vertex -0.587785244 -0.688190937 0.425325394
   vertex -0.693780482 -0.702046454 0.16062203
  endloop
 endfacet
facet normal -0.548116565 -0.451883465 0.703824997
  outer loop
   vertex -0.5 -0.309017003 0.809017003
   vertex -0.688190937 -0.425325394 0.587785244
   vertex -0.425325394 -0.587785244 0.688190937
  endloop
 endfacet
facet normal -0.703824997 -0.548116565 0.451883465
  outer loop
   vertex -0.809017003 -0.5 0.309017003
   vertex -0.587785244 -0.688190937 0.425325394
   vertex -0.688190937 -0.425325394 0.587785244
  endloop
 endfacet
facet normal -0.451883465 -0.703824997 0.548116565
  outer loop
   vertex -0.309017003 -0.809017003 0.5
   vertex -0.425325394 -0.587785244 0.688190937
   vertex -0.587785244 -0.688190937 0.425325394
  endloop
 endfacet
facet normal -0.577350259 -0.577350259 0.577350259
  outer loop
   vertex -0.688190937 -0.425325394 0.587785244
   vertex -0.587785244 -0.688190937 0.425325394
   vertex -0.425325394 -0.587785244 0.688190937
  endloop
 endfacet
facet normal 0.662437081 0.749117553 0
  outer loop
   vertex 0.525731087 0.850650787 0
   vertex 0.693780482 0.702046454 0.16062203
   vertex 0.693780482 0.702046454 -0.16062203
  endloop
 endfacet
facet normal 0.804284751 0.573373675 0.156104639
  outer loop
   vertex 0.809017003 0.5 0.309017003
   vertex 0.850650787 0.525731087 0
   vertex 0.693780482 0.702046454 0.16062203
  endloop
 endfacet
facet normal 0.804284751 0.573373675 -0.156104639
  outer loop
   vertex 0.809017003 0.5 -0.309017003
   vertex 0.693780482 0.702046454 -0.16062203
   vertex 0.850650787 0.525731087 0
  endloop
 endfacet
facet normal 0.747102916 0.664708376 0
  outer loop
   vertex 0.693780482 0.702046454 0.16062203
   vertex 0.850650787 0.525731087 0
   vertex 0.693780482 0.702046454 -0.16062203
  endloop
 endfacet
facet normal 0.910481632 0.0997285023 0.401344508
  outer loop
   vertex 0.850650787 0 0.525731087
   vertex 0.961938381 0 0.273266524
   vertex 0.862668455 0.259891927 0.433888555
  endloop
 endfacet
facet normal 0.985605836 0.0986688659 0.137279078
  outer loop
   vertex 1 0 0
   vertex 0.95105654 0.262865543 0.16245985
   vertex 0.961938381 0 0.273266524
  endloop
 endfacet
facet normal 0.88912791 0.351251453 0.293383718
  outer loop
   vertex 0.809017003 0.5 0.309017003
   vertex 0.862668455 0.259891927 0.433888555
   vertex 0.95105654 0.262865543 0.16245985
  endloop
 endfacet
facet normal 0.936773121 0.168145269 0.306892902
  outer loop
   vertex 0.961938381 0 0.273266524
   vertex 0.95105654 0.262865543 0.16245985
   vertex 0.862668455 0.259891927 0.433888555
  endloop
 endfacet
facet normal 0.910481632 0.0997285023 -0.401344508
  outer loop
   vertex 0.850650787 0 -0.525731087
   vertex 0.862668455 0.259891927 -0.433888555
   vertex 0.961938381 0 -0.273266524
  endloop
 endfacet
facet normal 0.88912791 0.351251453 -0.293383718
  outer loop
   vertex 0.809017003 0.5 -0.309017003
   vertex 0.95105654 0.262865543 -0.16245985
   vertex 0.862668455 0.259891927 -0.433888555
  endloop
 endfacet
facet normal 0.985605836 0.0986688659 -0.137279078
  outer loop
   vertex 1 0 0
   vertex 0.961938381 0 -0.273266524
   vertex 0.95105654 0.262865543 -0.16245985
  endloop
 endfacet
facet normal 0.936773121 0.168145269 -0.306892902
  outer loop
   vertex 0.862668455 0.259891927 -0.433888555
   vertex 0.95105654 0.262865543 -0.16245985
   vertex 0.961938381 0 -0.273266524
  endloop
 endfacet
facet normal 0.886871219 0.434987754 0.155708432
  outer loop
   vertex 0.809017003 0.5 0.309017003
   vertex 0.95105654 0.262865543 0.16245985
   vertex 0.850650787 0.525731087 0
  endloop
 endfacet
facet normal 0.983104289 0.183046237 0
  outer loop
   vertex 1 0 0
   vertex 0.95105654 0.262865543 -0.16245985
   vertex 0.95105654 0.262865543 0.16245985
  endloop
 endfacet
facet normal 0.886871219 0.434987754 -0.155708432
  outer loop
   vertex 0.809017003 0.5 -0.309017003
   vertex 0.850650787 0.525731087 0
   vertex 0.95105654 0.262865543 -0.16245985
  endloop
 endfacet
facet normal 0.934172332 0.356822103 0
  outer loop
   vertex 0.95105654 0.262865543 0.16245985
   vertex 0.95105654 0.262865543 -0.16245985
   vertex 0.850650787 0.525731087 0
  endloop
 endfacet
facet normal 0.662437081 -0.749117553 0
  outer loop
   vertex 0.525731087 -0.850650787 0
   vertex 0.693780482 -0.702046454 -0.16062203
   vertex 0.693780482 -0.702046454 0.16062203
  endloop
 endfacet
facet normal 0.804284751 -0.573373675 -0.156104639
  outer loop
   vertex 0.809017003 -0.5 -0.309017003
   vertex 0.850650787 -0.525731087 0
   vertex 0.693780482 -0.702046454 -0.16062203
  endloop
 endfacet
facet normal 0.804284751 -0.573373675 0.156104639
  outer loop
   vertex 0.809017003 -0.5 0.309017003
   vertex 0.693780482 -0.702046454 0.16062203
   vertex 0.850650787 -0.525731087 0
  endloop
 endfacet
facet normal 0.747102916 -0.664708376 0
  outer loop
   vertex 0.693780482 -0.702046454 -0.16062203
   vertex 0.850650787 -0.525731087 0
   vertex 0.693780482 -0.702046454 0.16062203
  endloop
 endfacet
facet normal 0.910481632 -0.0997285023 -0.401344508
  outer loop
   vertex 0.850650787 0 -0.525731087
   vertex 0.961938381 0 -0.273266524
   vertex 0.862668455 -0.259891927 -0.433888555
  endloop
 endfacet
facet normal 0.985605836 -0.0986688659 -0.137279078
  outer loop
   vertex 1 0 0
   vertex 0.95105654 -0.262865543 -0.16245985
   vertex 0.961938381 0 -0.273266524
  endloop
 endfacet
facet normal 0.88912791 -0.351251453 -0.293383718
  outer loop
   vertex 0.809017003 -0.5 -0.309017003
   vertex 0.862668455 -0.259891927 -0.433888555
   vertex 0.95105654 -0.262865543 -0.16245985
  endloop
 endfacet
facet normal 0.936773121 -0.168145269 -0.306892902
  outer loop
   vertex 0.961938381 0 -0.273266524
   vertex 0.95105654 -0.262865543 -0.16245985
   vertex 0.862668455 -0.259891927 -0.433888555
  endloop
 endfacet
facet normal 0.910481632 -0.0997285023 0.401344508
  outer loop
   vertex 0.850650787 0 0.525731087
   vertex 0.862668455 -0.259891927 0.433888555
   vertex 0.961938381 0 0.273266524
  endloop
 endfacet
facet normal 0.88912791 -0.351251453 0.293383718
  outer loop
   vertex 0.809017003 -0.5 0.309017003
   vertex 0.95105654 -0.262865543 0.16245985
   vertex 0.862668455 -0.259891927 0.433888555
  endloop
 endfacet
facet normal 0.985605836 -0.0986688659 0.137279078
  outer loop
   vertex 1 0 0
   vertex 0.961938381 0 0.273266524
   vertex 0.95105654 -0.262865543 0.16245985
  endloop
 endfacet
facet normal 0.936773121 -0.168145269 0.306892902
  outer loop
   vertex 0.862668455 -0.259891927 0.433888555
   vertex 0.95105654 -0.262865543 0.16245985
   vertex 0.961938381 0 0.273266524
  endloop
 endfacet
facet normal 0.886871219 -0.434987754 -0.155708432
  outer loop
   vertex 0.809017003 -0.5 -0.309017003
   vertex 0.95105654 -0.262865543 -0.16245985
   vertex 0.850650787 -0.525731087 0
  endloop
 endfacet
facet normal 0.983104289 -0.183046237 0
  outer loop
   vertex 1 0 0
   vertex 0.95105654 -0.262865543 0.16245985
   vertex 0.95105654 -0.262865543 -0.16245985
  endloop
 endfacet
facet normal 0.886871219 -0.434987754 0.155708432
  outer loop
   vertex 0.809017003 -0.5 0.309017003
   vertex 0.850650787 -0.525731087 0
   vertex 0.95105654 -0.262865543 0.16245985
  endloop
 endfacet
facet normal 0.934172332 -0.356822103 0
  outer loop
   vertex 0.95105654 -0.262865543 -0.16245985
   vertex 0.95105654 -0.262865543 0.16245985
   vertex 0.850650787 -0.525731087 0
  endloop
 endfacet
facet normal -0.662437081 -0.749117553 0
  outer loop
   vertex -0.525731087 -0.850650787 0
   vertex -0.693780482 -0.702046454 0.16062203
   vertex -0.693780482 -0.702046454 -0.16062203
  endloop
 endfacet
facet normal -0.804284751 -0.573373675 0.156104639
  outer loop
   vertex -0.809017003 -0.5 0.309017003
   vertex -0.850650787 -0.525731087 0
   vertex -0.693780482 -0.702046454 0.16062203
  endloop
 endfacet
facet normal -0.804284751 -0.573373675 -0.156104639
  outer loop
   vertex -0.809017003 -0.5 -0.309017003
   vertex -0.693780482 -0.702046454 -0.16062203
   vertex -0.850650787 -0.525731087 0
  endloop
 endfacet
facet normal -0.747102916 -0.664708376 -0
  outer loop
   vertex -0.693780482 -0.702046454 0.16062203
   vertex -0.850650787 -0.525731087 0
   vertex -0.693780482 -0.702046454 -0.16062203
  endloop
 endfacet
facet normal -0.910481632 -0.0997285023 0.401344508
  outer loop
   vertex -0.850650787 0 0.525731087
   vertex -0.961938381 0 0.273266524
   vertex -0.862668455 -0.259891927 0.433888555
  endloop
 endfacet
facet normal -0.985605836 -0.0986688659 0.137279078
  outer loop
   vertex -1 0 0
   vertex -0.95105654 -0.262865543 0.16245985
   vertex -0.961938381 0 0.273266524
  endloop
 endfacet
facet normal -0.88912791 -0.351251453 0.293383718
  outer loop
   vertex -0.809017003 -0.5 0.309017003
   vertex -0.862668455 -0.259891927 0.433888555
   vertex -0.95105654 -0.262865543 0.16245985
  endloop
 endfacet
facet normal -0.936773121 -0.168145269 0.306892902
  outer loop
   vertex -0.961938381 0 0.273266524
   vertex -0.95105654 -0.262865543 0.16245985
   vertex -0.862668455 -0.259891927 0.433888555
  endloop
 endfacet
facet normal -0.910481632 -0.0997285023 -0.401344508
  outer loop
   vertex -0.850650787 0 -0.525731087
   vertex -0.862668455 -0.259891927 -0.433888555
   vertex -0.961938381 0 -0.273266524
  endloop
 endfacet
facet normal -0.88912791 -0.351251453 -0.293383718
  outer loop
   vertex -0.809017003 -0.5 -0.309017003
   vertex -0.95105654 -0.262865543 -0.16245985
   vertex -0.862668455 -0.259891927 -0.433888555
  endloop
 endfacet
facet normal -0.985605836 -0.0986688659 -0.137279078
  outer loop
   vertex -1 0 0
   vertex -0.961938381 0 -0.273266524
   vertex -0.95105654 -0.262865543 -0.16245985
  endloop
 endfacet
facet normal -0.936773121 -0.168145269 -0.306892902
  outer loop
   vertex -0.862668455 -0.259891927 -0.433888555
   vertex -0.95105654 -0.262865543 -0.16245985
   vertex -0.961938381 0 -0.273266524
  endloop
 endfacet
facet normal -0.886871219 -0.434987754 0.155708432
  outer loop
   vertex -0.809017003 -0.5 0.309017003
   vertex -0.95105654 -0.262865543 0.16245985
   vertex -0.850650787 -0.525731087 0
  endloop
 endfacet
facet normal -0.983104289 -0.183046237 0
  outer loop
   vertex -1 0 0
   vertex -0.95105654 -0.262865543 -0.16245985
   vertex -0.95105654 -0.262865543 0.16245985
  endloop
 endfacet
facet normal -0.886871219 -0.434987754 -0.155708432
  outer loop
   vertex -0.809017003 -0.5 -0.309017003
   vertex -0.850650787 -0.525731087 0
   vertex -0.95105654 -0.262865543 -0.16245985
  endloop
 endfacet
facet normal -0.934172332 -0.356822103 -0
  outer loop
   vertex -0.95105654 -0.262865543 0.16245985
   vertex -0.95105654 -0.262865543 -0.16245985
   vertex -0.850650787 -0.525731087 0
  endloop
 endfacet
facet normal -0.662437081 0.749117553 0
  outer loop
   vertex -0.525731087 0.850650787 0
   vertex -0.693780482 0.702046454 -0.16062203
   vertex -0.693780482 0.702046454 0.16062203
  endloop
 endfacet
facet normal -0.804284751 0.573373675 -0.156104639
  outer loop
   vertex -0.809017003 0.5 -0.309017003
   vertex -0.850650787 0.525731087 0
   vertex -0.693780482 0.702046454 -0.16062203
  endloop
 endfacet
facet normal -0.804284751 0.573373675 0.156104639
  outer loop
   vertex -0.809017003 0.5 0.309017003
   vertex -0.693780482 0.702046454 0.16062203
   vertex -0.850650787 0.525731087 0
  endloop
 endfacet
facet normal -0.747102916 0.664708376 0
  outer loop
   vertex -0.693780482 0.702046454 -0.16062203
   vertex -0.850650787 0.525731087 0
   vertex -0.693780482 0.702046454 0.16062203
  endloop
 endfacet
facet normal -0.910481632 0.0997285023 -0.401344508
  outer loop
   vertex -0.850650787 0 -0.525731087
   vertex -0.961938381 0 -0.273266524
   vertex -0.862668455 0.259891927 -0.433888555
  endloop
 endfacet
facet normal -0.985605836 0.0986688659 -0.137279078
  outer loop
   vertex -1 0 0
   vertex -0.95105654 0.262865543 -0.16245985
   vertex -0.961938381 0 -0.273266524
  endloop
 endfacet
facet normal -0.88912791 0.351251453 -0.293383718
  outer loop
   vertex -0.809017003 0.5 -0.309017003
   vertex -0.862668455 0.259891927 -0.433888555
   vertex -0.95105654 0.262865543 -0.16245985
  endloop
 endfacet
facet normal -0.936773121 0.168145269 -0.306892902
  outer loop
   vertex -0.961938381 0 -0.273266524
   vertex -0.95105654 0.262865543 -0.16245985
   vertex -0.862668455 0.259891927 -0.433888555
  endloop
 endfacet
facet normal -0.910481632 0.0997285023 0.401344508
  outer loop
   vertex -0.850650787 0 0.525731087
   vertex -0.862668455 0.259891927 0.433888555
   vertex -0.961938381 0 0.273266524
  endloop
 endfacet
facet normal -0.88912791 0.351251453 0.293383718
  outer loop
   vertex -0.809017003 0.5 0.309017003
   vertex -0.95105654 0.262865543 0.16245985
   vertex -0.862668455 0.259891927 0.433888555
  endloop
 endfacet
facet normal -0.985605836 0.0986688659 0.137279078
  outer loop
   vertex -1 0 0
   vertex -0.961938381 0 0.273266524
   vertex -0.95105654 0.262865543 0.16245985
  endloop
 endfacet
facet normal -0.936773121 0.168145269 0.306892902
  outer loop
   vertex -0.862668455 0.259891927 0.433888555
   vertex -0.95105654 0.262865543 0.16245985
   vertex -0.961938381 0 0.273266524
  endloop
 endfacet
facet normal -0.886871219 0.434987754 -0.155708432
  outer loop
   vertex -0.809017003 0.5 -0.309017003
   vertex -0.95105654 0.262865543 -0.16245985
   vertex -0.850650787 0.525731087 0
  endloop
 endfacet
facet normal -0.983104289 0.183046237 0
  outer loop
   vertex -1 0 0
   vertex -0.95105654 0.262865543 0.16245985
   vertex -0.95105654 0.262865543 -0.16245985
  endloop
 endfacet
facet normal -0.886871219 0.434987754 0.155708432
  outer loop
   vertex -0.809017003 0.5 0.309017003
   vertex -0.850650787 0.525731087 0
   vertex -0.95105654 0.262865543 0.16245985
  endloop
 endfacet
facet normal -0.934172332 0.356822103 0
  outer loop
   vertex -0.95105654 0.262865543 -0.16245985
   vertex -0.95105654 0.262865543 0.16245985
   vertex -0.850650787 0.525731087 0
  endloop
 endfacet
endsolid MATLAB_1
